<?xml version="1.0" standalone="no"?>
<!DOCTYPE svg PUBLIC "-//W3C//DTD SVG 20010904//EN"
 "http://www.w3.org/TR/2001/REC-SVG-20010904/DTD/svg10.dtd">
<svg version="1.0" xmlns="http://www.w3.org/2000/svg"
 width="868.000000pt" height="868.000000pt" viewBox="0 0 868.000000 868.000000"
 preserveAspectRatio="xMidYMid meet">
<metadata>
Created by potrace 1.11, written by Peter Selinger 2001-2013
</metadata>
<g transform="translate(0.000000,868.000000) scale(0.100000,-0.100000)"
fill="#000000" stroke="none">
<path d="M6469 8296 c-8 -8 -124 -17 -271 -20 -89 -2 -132 -7 -143 -16 -13
-11 -18 -11 -24 -1 -6 10 -33 6 -122 -19 -63 -17 -132 -39 -154 -48 -22 -9
-43 -16 -47 -14 -5 1 -8 -2 -8 -7 0 -5 -31 -21 -70 -36 -38 -15 -70 -31 -70
-35 0 -5 -10 -10 -22 -12 -13 -2 -27 -13 -33 -25 -11 -26 -43 -32 -100 -20
-22 5 -55 6 -74 3 -35 -5 -81 -40 -81 -61 0 -6 -11 -18 -25 -25 -13 -7 -28
-22 -31 -34 -12 -38 -55 -66 -103 -66 -18 0 -35 -7 -43 -19 -23 -33 -89 -44
-157 -26 -32 8 -73 15 -89 15 -17 0 -43 5 -59 11 -25 9 -31 7 -51 -17 -19 -22
-26 -25 -33 -13 -8 12 -10 12 -18 0 -5 -7 -13 -11 -19 -7 -14 8 -58 -9 -84
-34 -12 -11 -29 -18 -37 -15 -9 2 -36 7 -61 10 -24 3 -48 9 -53 14 -12 12 -95
-13 -110 -33 -10 -13 -16 -15 -21 -8 -12 19 -23 14 -30 -13 -6 -24 -6 -24 -41
-8 -34 16 -36 16 -58 -5 -13 -12 -28 -22 -34 -22 -6 0 -26 -14 -44 -31 -18
-17 -35 -26 -37 -20 -5 16 -32 13 -32 -3 0 -30 -45 -68 -80 -70 -27 -1 -40 -9
-56 -34 -19 -27 -24 -30 -34 -17 -28 34 -113 5 -103 -35 3 -11 10 -20 16 -20
22 0 -12 -23 -65 -44 -31 -12 -57 -30 -64 -44 -6 -13 -14 -23 -18 -23 -26 3
-36 -1 -36 -14 0 -26 -19 -17 -36 17 -15 30 -18 31 -24 13 -4 -11 -5 -24 -2
-30 3 -5 -1 -4 -9 3 -15 14 -33 16 -24 2 7 -12 -31 -36 -72 -45 -29 -6 -33 -4
-33 14 0 12 -5 21 -11 21 -6 0 -9 -6 -6 -12 6 -19 -11 -48 -29 -48 -9 0 -14 6
-11 13 2 6 0 20 -5 30 -7 14 -12 16 -24 7 -7 -7 -12 -16 -9 -20 3 -5 0 -12 -6
-15 -6 -4 -13 2 -16 15 -5 20 -10 21 -57 14 -68 -10 -99 -8 -134 10 -21 11
-32 12 -40 4 -7 -7 -18 -3 -37 16 -14 14 -27 26 -29 26 -2 0 -7 -12 -11 -27
l-7 -28 -19 39 c-24 50 -37 58 -63 40 -17 -12 -22 -11 -39 4 -13 11 -37 17
-76 18 -32 1 -75 5 -97 9 -66 13 -168 6 -419 -30 -65 -9 -178 -37 -205 -50
-14 -7 -52 -18 -85 -25 -48 -9 -176 -63 -285 -119 -8 -4 -22 -21 -31 -37 -13
-24 -22 -28 -47 -26 -18 2 -43 -5 -59 -15 -15 -10 -37 -24 -48 -30 -11 -6 -19
-17 -17 -23 5 -21 -20 -42 -43 -36 -15 4 -28 -1 -40 -14 -10 -11 -24 -20 -32
-20 -11 0 -13 -11 -9 -51 l6 -52 -36 42 c-20 22 -40 41 -45 41 -4 0 -7 -18 -6
-40 1 -22 0 -39 -3 -37 -3 1 -17 -5 -31 -15 -14 -9 -36 -18 -50 -20 -13 -2
-23 -9 -22 -16 5 -21 -4 -13 -26 24 -12 19 -26 32 -31 29 -14 -9 -12 -21 6
-40 21 -20 12 -30 -14 -16 -18 9 -23 6 -42 -24 -13 -21 -26 -32 -33 -28 -7 4
-52 8 -102 9 -49 2 -98 3 -107 3 -11 1 -18 9 -18 21 0 26 -36 46 -56 29 -11
-9 -18 -9 -32 4 -9 8 -37 21 -62 27 -56 15 -312 20 -382 8 -56 -10 -102 -33
-93 -47 7 -12 -19 -31 -62 -46 -31 -11 -39 -19 -45 -46 -11 -58 -4 -2157 8
-2169 12 -12 49 -18 137 -21 34 -1 71 -7 82 -12 24 -12 140 -101 175 -135 14
-13 37 -31 53 -40 15 -9 27 -19 27 -23 0 -7 15 -11 75 -23 48 -10 150 -68 196
-112 46 -44 52 -60 33 -88 -18 -29 -11 -61 17 -76 10 -6 19 -15 19 -20 0 -17
-32 -40 -56 -40 -13 0 -24 -5 -24 -11 0 -5 5 -7 10 -4 6 3 10 2 10 -4 0 -5 -6
-11 -12 -14 -9 -3 -5 -11 10 -22 17 -12 21 -20 13 -28 -13 -13 -15 -106 -3
-125 5 -7 25 -13 45 -14 29 -1 34 -4 26 -14 -7 -8 -9 -36 -5 -70 4 -47 11 -62
36 -85 24 -23 30 -36 30 -71 0 -24 7 -56 15 -72 8 -15 15 -35 15 -42 0 -8 7
-14 15 -14 12 0 13 -3 3 -19 -14 -22 5 -92 31 -119 8 -8 17 -24 18 -36 2 -11
8 -23 13 -24 6 -2 10 -10 10 -18 0 -8 4 -14 9 -14 11 0 75 -59 70 -64 -2 -2
-17 -10 -34 -19 l-30 -16 33 -7 c45 -9 83 -71 62 -99 -4 -5 -11 -25 -15 -42
-6 -28 -2 -37 23 -60 17 -16 49 -64 72 -107 36 -66 41 -82 31 -98 -15 -25 -6
-38 23 -32 41 7 63 -27 57 -88 -2 -12 5 -18 17 -18 20 0 52 -29 52 -48 0 -7 5
-12 10 -12 13 0 13 -47 0 -55 -24 -15 -7 -27 62 -40 19 -4 58 -40 58 -54 0
-18 52 -71 70 -71 10 0 20 -9 23 -21 3 -12 10 -18 16 -14 7 4 11 -5 11 -25 0
-17 4 -29 10 -25 5 3 17 -3 26 -14 48 -56 124 -126 147 -134 9 -3 17 -11 17
-17 0 -18 42 -53 67 -56 12 -1 23 2 23 7 0 5 6 9 13 9 8 0 13 -11 13 -26 -1
-34 27 -53 53 -37 24 15 35 5 15 -14 -8 -8 -11 -19 -8 -25 4 -6 10 -5 16 3 7
10 8 8 3 -6 -12 -35 -10 -39 13 -43 12 -2 22 -8 22 -13 0 -5 12 -9 26 -9 24 0
26 -3 20 -31 -6 -29 -4 -31 18 -25 23 6 24 4 16 -23 -4 -16 -16 -41 -25 -55
-17 -25 -17 -29 -2 -43 18 -19 47 -11 54 15 7 27 36 41 69 34 22 -5 29 -13 29
-31 0 -21 5 -24 38 -26 41 -1 53 -10 59 -40 2 -14 11 -19 33 -20 23 0 29 -4
27 -17 -2 -12 4 -18 18 -18 11 0 20 -5 20 -11 0 -6 20 -31 45 -54 32 -31 50
-42 65 -38 16 4 20 0 20 -21 0 -14 5 -26 10 -26 6 0 10 -12 10 -26 0 -18 4
-25 14 -21 15 6 46 -22 46 -41 0 -16 51 -73 60 -67 5 3 11 -4 15 -14 4 -13 17
-21 38 -23 27 -3 32 -7 29 -26 -2 -13 4 -33 14 -43 10 -11 19 -29 21 -40 2
-11 17 -40 33 -64 17 -24 30 -48 30 -54 0 -5 10 -17 21 -25 12 -8 27 -25 33
-38 9 -16 20 -22 39 -21 22 1 27 -2 27 -23 0 -24 14 -32 25 -14 3 5 11 10 16
10 6 0 7 -4 4 -10 -3 -5 3 -17 15 -27 11 -10 20 -22 20 -29 0 -6 18 -25 40
-43 22 -18 40 -41 40 -51 0 -11 6 -20 13 -21 53 -3 110 -29 145 -66 12 -14 29
-22 37 -19 8 3 17 1 21 -5 3 -6 12 -8 19 -5 8 3 24 -3 37 -13 13 -10 37 -21
53 -25 17 -4 38 -15 49 -24 10 -9 20 -16 22 -14 2 1 17 -4 32 -11 15 -8 42
-12 60 -10 18 1 43 -3 55 -11 49 -30 202 -73 252 -71 28 2 50 4 50 5 0 1 11 4
25 6 31 5 65 12 65 14 0 2 27 7 81 15 39 5 50 7 117 19 22 4 30 0 37 -18 12
-33 54 -23 87 21 14 19 35 39 45 44 45 24 177 31 241 12 27 -8 64 -11 87 -8
41 6 147 52 175 75 13 11 20 11 39 0 14 -7 34 -9 47 -5 42 12 143 58 160 72 8
7 26 15 40 17 13 2 24 5 24 6 0 1 10 3 23 6 12 2 32 6 45 8 12 3 24 6 27 7 3
1 10 3 15 4 6 1 22 7 36 13 24 9 63 18 134 28 11 1 22 3 25 5 3 1 10 3 15 4 6
2 12 4 15 5 3 1 12 3 20 5 8 2 26 7 40 10 41 10 106 15 265 21 203 7 216 8
243 23 13 7 26 10 29 7 3 -3 21 1 39 9 19 8 36 13 37 12 7 -5 95 40 122 63 58
48 145 142 140 151 -3 4 8 15 25 24 30 15 39 42 20 61 -6 6 3 20 25 40 30 27
36 29 57 17 36 -20 44 -15 18 12 -13 14 -29 25 -36 25 -6 0 -17 7 -25 16 -11
13 -10 19 1 37 8 12 15 38 16 57 4 77 16 187 29 260 9 52 13 555 5 601 -7 35
-2 50 38 129 44 86 46 91 31 118 -21 37 -18 55 13 90 27 30 27 31 6 38 -27 8
-4 24 27 18 16 -3 25 3 33 21 13 27 6 55 -12 55 -7 0 -22 20 -33 44 l-21 43
54 -2 c61 -3 73 5 47 31 -12 12 -14 19 -6 21 7 3 10 10 7 18 -3 7 -1 16 5 20
6 3 11 21 11 40 0 18 5 35 12 37 13 5 7 20 -18 55 -15 21 -15 21 33 20 l48 -2
1 35 c0 33 9 77 21 110 4 8 5 20 4 25 -2 6 -4 20 -6 32 -4 34 -47 146 -63 166
-8 9 -12 17 -7 17 4 0 2 6 -4 13 -6 8 -9 16 -7 18 3 3 8 18 11 34 12 60 16 79
30 138 8 33 12 64 9 69 -3 4 -1 8 3 8 5 0 10 12 11 28 1 15 11 63 22 107 10
44 22 100 25 125 4 24 8 47 10 51 2 3 7 34 11 70 8 68 8 144 -1 642 -4 273 -3
322 10 347 16 31 13 34 -25 31 -10 -1 -7 5 8 15 23 17 30 44 11 44 -8 0 -9 17
-6 53 6 52 5 53 -23 64 -21 8 -28 16 -24 27 3 9 10 13 15 10 5 -3 9 0 9 5 0
10 -20 15 -42 12 -9 -1 -70 109 -79 144 -27 103 -45 181 -54 230 -2 11 -6 31
-10 45 -3 14 -8 38 -11 55 -3 16 -9 34 -14 40 -8 10 -45 128 -41 133 2 2 -4
13 -12 26 -10 14 -13 38 -11 67 3 24 6 69 8 99 3 42 13 71 42 120 46 79 32 61
201 246 87 95 115 130 136 169 25 47 76 219 87 294 5 38 14 79 19 92 5 13 9
26 9 29 1 7 17 47 41 103 11 26 20 48 18 50 -1 1 14 25 32 52 43 63 165 184
211 209 19 11 37 22 40 25 20 24 302 166 350 176 3 1 25 7 50 15 47 14 52 15
85 24 87 23 134 31 236 41 31 2 79 14 105 26 l49 21 -28 22 c-26 21 -27 24
-10 30 18 8 45 12 118 20 74 7 95 16 95 41 0 12 -6 27 -13 33 -14 12 -136 22
-142 12 -3 -4 -15 -5 -28 -3 -14 3 -51 -8 -89 -26 -36 -17 -87 -35 -114 -40
-66 -13 -171 -6 -189 12 -8 8 -25 12 -39 10 -16 -3 -57 10 -113 35 -150 69
-440 161 -577 183 -33 6 -101 26 -151 44 -51 19 -128 40 -171 46 -44 6 -117
19 -164 29 -47 11 -103 21 -125 25 -23 3 -52 8 -65 11 -40 8 -214 17 -221 10z"/>
</g>
</svg>
